REM DIRINDEX 1\2,1\4,1\3\5,1\3\6,1\3\7
REM DIRNAME folder01,folder02,folder03,folder04,folder05,folder06,folder07
TITLE ""
FILE "CD1Track22.mp3" MP3
  TRACK 01 AUDIO
    TITLE "0:"
    INDEX 01 00:00:00
  TRACK 02 AUDIO
    TITLE "5:cjc083_0465"
    INDEX 01 00:00:27
  TRACK 03 AUDIO
    TITLE "0:"
    INDEX 01 00:01:46
  TRACK 04 AUDIO
    TITLE "6:cjc083_0466"
    INDEX 01 00:02:20
  TRACK 05 AUDIO
    TITLE "0:"
    INDEX 01 00:03:57
  TRACK 06 AUDIO
    TITLE "5:cjc083_0467"
    INDEX 01 00:04:21
  TRACK 07 AUDIO
    TITLE "0:"
    INDEX 01 00:05:42
  TRACK 08 AUDIO
    TITLE "6:cjc083_0468"
    INDEX 01 00:06:08
  TRACK 09 AUDIO
    TITLE "0:"
    INDEX 01 00:07:15
  TRACK 10 AUDIO
    TITLE "5:cjc083_0469"
    INDEX 01 00:07:56
  TRACK 11 AUDIO
    TITLE "0:"
    INDEX 01 00:08:70
  TRACK 12 AUDIO
    TITLE "6:cjc083_0470"
    INDEX 01 00:09:40
  TRACK 13 AUDIO
    TITLE "0:"
    INDEX 01 00:10:66
  TRACK 14 AUDIO
    TITLE "5:cjc083_0471"
    INDEX 01 00:11:29
  TRACK 15 AUDIO
    TITLE "0:"
    INDEX 01 00:12:54
  TRACK 16 AUDIO
    TITLE "6:cjc083_0472"
    INDEX 01 00:13:24
  TRACK 17 AUDIO
    TITLE "0:"
    INDEX 01 00:14:21
  TRACK 18 AUDIO
    TITLE "5:cjc083_0473"
    INDEX 01 00:14:60
  TRACK 19 AUDIO
    TITLE "0:"
    INDEX 01 00:15:72
  TRACK 20 AUDIO
    TITLE "6:cjc083_0474"
    INDEX 01 00:16:48
  TRACK 21 AUDIO
    TITLE "0:"
    INDEX 01 00:17:51
  TRACK 22 AUDIO
    TITLE "5:cjc083_0475"
    INDEX 01 00:18:25
  TRACK 23 AUDIO
    TITLE "0:"
    INDEX 01 00:19:40
  TRACK 24 AUDIO
    TITLE "6:cjc083_0476"
    INDEX 01 00:20:10
  TRACK 25 AUDIO
    TITLE "0:"
    INDEX 01 00:21:37
  TRACK 26 AUDIO
    TITLE "5:cjc083_0477"
    INDEX 01 00:22:07
  TRACK 27 AUDIO
    TITLE "0:"
    INDEX 01 00:23:24
  TRACK 28 AUDIO
    TITLE "6:cjc083_0478"
    INDEX 01 00:23:69
  TRACK 29 AUDIO
    TITLE "0:"
    INDEX 01 00:25:25
  TRACK 30 AUDIO
    TITLE "5:cjc083_0479"
    INDEX 01 00:25:68
  TRACK 31 AUDIO
    TITLE "0:"
    INDEX 01 00:27:00
  TRACK 32 AUDIO
    TITLE "6:cjc083_0480"
    INDEX 01 00:27:43
  TRACK 33 AUDIO
    TITLE "0:"
    INDEX 01 00:28:62
  TRACK 34 AUDIO
    TITLE "5:cjc083_0481"
    INDEX 01 00:29:33
  TRACK 35 AUDIO
    TITLE "0:"
    INDEX 01 00:30:46
  TRACK 36 AUDIO
    TITLE "6:cjc083_0482"
    INDEX 01 00:31:10
  TRACK 37 AUDIO
    TITLE "0:"
    INDEX 01 00:32:21
  TRACK 38 AUDIO
    TITLE "5:cjc083_0483"
    INDEX 01 00:32:62
  TRACK 39 AUDIO
    TITLE "0:"
    INDEX 01 00:34:06
  TRACK 40 AUDIO
    TITLE "6:cjc083_0484"
    INDEX 01 00:34:49
  TRACK 41 AUDIO
    TITLE "0:"
    INDEX 01 00:36:25
  TRACK 42 AUDIO
    TITLE "5:cjc083_0485"
    INDEX 01 00:36:66
  TRACK 43 AUDIO
    TITLE "0:"
    INDEX 01 00:38:12
  TRACK 44 AUDIO
    TITLE "6:cjc083_0486"
    INDEX 01 00:38:67
  TRACK 45 AUDIO
    TITLE "0:"
    INDEX 01 00:39:72
  TRACK 46 AUDIO
    TITLE "5:cjc083_0487"
    INDEX 01 00:40:48
  TRACK 47 AUDIO
    TITLE "0:"
    INDEX 01 00:41:69
  TRACK 48 AUDIO
    TITLE "6:cjc083_0488"
    INDEX 01 00:42:39
  TRACK 49 AUDIO
    TITLE "0:"
    INDEX 01 00:43:54
  TRACK 50 AUDIO
    TITLE "5:cjc083_0489"
    INDEX 01 00:44:20
  TRACK 51 AUDIO
    TITLE "0:"
    INDEX 01 00:46:25
  TRACK 52 AUDIO
    TITLE "6:cjc083_0490"
    INDEX 01 00:46:68
  TRACK 53 AUDIO
    TITLE "0:"
    INDEX 01 00:49:06
  TRACK 54 AUDIO
    TITLE "5:cjc083_0491"
    INDEX 01 00:49:47
  TRACK 55 AUDIO
    TITLE "0:"
    INDEX 01 00:50:60
  TRACK 56 AUDIO
    TITLE "6:cjc083_0492"
    INDEX 01 00:51:28
  TRACK 57 AUDIO
    TITLE "0:"
    INDEX 01 00:53:11
  TRACK 58 AUDIO
    TITLE "5:cjc083_0493"
    INDEX 01 00:53:51
  TRACK 59 AUDIO
    TITLE "0:"
    INDEX 01 00:54:66
  TRACK 60 AUDIO
    TITLE "6:cjc083_0494"
    INDEX 01 00:55:42
  TRACK 61 AUDIO
    TITLE "0:"
    INDEX 01 00:58:09
  TRACK 62 AUDIO
    TITLE "7:cjc083_0495"
    INDEX 01 00:59:47
  TRACK 63 AUDIO
    TITLE "0:"
    INDEX 01 01:10:16
